<svg xmlns="http://www.w3.org/2000/svg" width="120" height="120" viewBox="0 0 120 120" fill="none">
  <path fill-rule="evenodd" clip-rule="evenodd" d="M60.1694 120C48.6505 120 38.3512 117.402 29.2038 112.351C20.0564 107.228 12.9418 100.084 7.72445 90.9922C2.57481 81.9002 0 71.5815 0 60.0361C0 57.0776 0.135515 54.2634 0.474306 51.4492C1.55844 42.285 8.74082 35.5743 17.4139 35.5743H40.926C40.926 35.5743 40.3162 36.2237 39.9774 36.5845C34.6923 42.4293 32.0497 50.2225 32.0497 60.1082C32.0497 69.994 34.6923 77.715 39.9774 83.5598C45.2626 89.4047 51.9707 92.291 60.1017 92.291C68.2327 92.291 74.9407 89.3325 80.1581 83.5598C85.3755 77.715 88.0181 69.9218 88.0181 60.1082C88.0181 50.2946 85.3755 42.5015 80.1581 36.5845C74.9407 30.7396 68.3004 27.7811 60.1017 27.7811H8.40202C13.4839 19.3385 20.3953 12.6278 29.0683 7.72098C38.2157 2.59771 48.515 0 60.0339 0C71.5528 0 81.8521 2.59771 90.9317 7.72098C100.011 12.8443 107.126 19.988 112.276 29.08C117.425 38.172 120 48.4907 120 60.0361C120 71.5815 117.425 81.9002 112.276 90.9922C107.126 100.084 100.011 107.228 90.9317 112.351C81.8521 117.474 71.5528 120 60.0339 120H60.1694Z" fill="url(#paint0_linear_169_63561)"/>
  <defs>
    <linearGradient id="paint0_linear_169_63561" x1="60" y1="0" x2="60" y2="120" gradientUnits="userSpaceOnUse">
      <stop stop-color="#FF3465"/>
      <stop offset="1" stop-color="#9E77ED"/>
    </linearGradient>
  </defs>
</svg>
