<svg width="142" height="32" viewBox="0 0 142 32" fill="none" xmlns="http://www.w3.org/2000/svg">
<g id="Kroolo Transparent Logo Beta 2" clip-path="url(#clip0_5_97919)">
<g id="Clip path group">
<mask id="mask0_5_97919" style="mask-type:luminance" maskUnits="userSpaceOnUse" x="0" y="0" width="142" height="32">
<g id="clip0_3_394">
<path id="Vector" d="M141.509 0H0V32H141.509V0Z" fill="white"/>
</g>
</mask>
<g mask="url(#mask0_5_97919)">
<g id="Group">
<path id="Vector_2" d="M10.983 17.3693H19.9186C18.4525 19.4141 16.3267 20.8866 13.9311 21.558C13.717 21.6175 13.5015 21.6717 13.2833 21.7166C12.5641 21.8726 11.8264 21.9559 11.0768 21.9625H10.9843C10.1924 21.9625 9.41897 21.8766 8.67333 21.714C8.44729 21.6651 8.22251 21.6096 8.00174 21.5461C3.4711 20.2521 0.0879868 16.0952 0.000731651 11.1809C-0.0508281 8.20817 1.0663 5.4047 3.14852 3.28591C5.23073 1.16712 8.01231 0 10.983 0C11.0649 0 11.1443 0.00132177 11.2262 0.00264354C14.144 0.0660883 16.8713 1.27419 18.9086 3.40355C20.5612 5.13112 21.587 7.28692 21.8806 9.59736C21.9096 9.82468 21.9308 10.0547 21.9453 10.286C21.1997 10.1234 20.4263 10.0375 19.6344 10.0375C19.604 10.0375 19.5723 10.0388 19.5419 10.0388C18.7923 10.0454 18.0532 10.1287 17.3354 10.2834C17.3116 10.06 17.2772 9.84057 17.2283 9.62646C16.6056 6.75291 14.0435 4.59447 10.983 4.59314C10.9036 4.59314 10.8203 4.59579 10.7397 4.59843C7.42401 4.72135 4.72572 7.4151 4.5988 10.7301C4.53138 12.4854 5.16334 14.1482 6.37828 15.4105C7.21249 16.2776 8.24501 16.8764 9.37798 17.1684C9.89361 17.3006 10.433 17.3693 10.983 17.3693Z" fill="#FF3465"/>
<path id="Vector_3" d="M30.6166 20.8205C30.6695 23.7932 29.5524 26.5967 27.4702 28.7155C25.3879 30.8343 22.6064 32.0001 19.6358 32.0001C19.5538 32.0001 19.4745 32.0001 19.3925 31.9974C16.4747 31.9353 13.7474 30.7272 11.7101 28.5979C10.0576 26.869 9.03163 24.7132 8.73814 22.4027C8.70904 22.1754 8.68924 21.9454 8.67334 21.7141C9.41897 21.8767 10.1924 21.9626 10.9843 21.9626H11.0768C11.8264 21.956 12.5641 21.8727 13.2833 21.7167C13.3071 21.9401 13.3441 22.1595 13.3904 22.3749C14.0131 25.2485 16.5765 27.4069 19.6358 27.4069C19.7164 27.4069 19.7984 27.4056 19.879 27.403C23.1947 27.2801 25.8916 24.5863 26.0199 21.2713C26.0873 19.516 25.4554 17.8532 24.2404 16.5909C23.4062 15.7238 22.3737 15.1237 21.2433 14.833C21.1284 14.8039 21.0133 14.7775 20.8983 14.7536C20.8547 14.7457 20.811 14.7378 20.7661 14.7299C20.7146 14.7206 20.6603 14.7113 20.6074 14.7034C20.5017 14.6876 20.3946 14.6743 20.2875 14.6638C20.2598 14.6598 20.232 14.6572 20.2029 14.6558C20.1527 14.6506 20.1024 14.6466 20.0535 14.644H20.0389C19.9966 14.64 19.9543 14.6387 19.9107 14.6373C19.8737 14.6347 19.8367 14.6334 19.7997 14.6334C19.7455 14.6321 19.69 14.6307 19.6358 14.6307H10.7C12.1662 12.586 14.2934 11.1135 16.6876 10.4434C16.9018 10.3826 17.1173 10.3297 17.3354 10.2835C18.0532 10.1288 18.7923 10.0455 19.5419 10.0389C19.5723 10.0389 19.604 10.0376 19.6344 10.0376C20.4263 10.0376 21.1997 10.1235 21.9453 10.2861C22.0035 10.298 22.0577 10.3112 22.1146 10.3244C22.1873 10.3416 22.26 10.3588 22.3341 10.3773C22.4279 10.4011 22.5218 10.4275 22.6156 10.4539C24.407 10.9655 26.0186 11.9237 27.3181 13.1993C29.3078 15.1528 30.5651 17.8479 30.6166 20.8205Z" fill="#7F56D9"/>
<path id="Vector_4" d="M91.4922 19.353C91.5846 24.5872 87.312 28.8446 82.074 28.7322C77.0091 28.6225 72.9503 24.3744 73.0626 19.3107C73.0722 18.8957 73.1093 18.4885 73.1713 18.088C73.1713 18.0854 73.1728 18.0828 73.1728 18.0801C73.1804 18.0325 73.187 17.9849 73.1961 17.9374C73.1977 17.936 73.1961 17.936 73.1961 17.936C73.1977 17.9294 73.1992 17.9228 73.1992 17.9176C73.3815 16.8667 74.3084 16.1081 75.3748 16.1081H79.2899C78.3402 16.9381 77.7415 18.1581 77.7415 19.5195C77.7415 22.0811 79.8658 24.1457 82.4508 24.0493C84.8012 23.962 86.7168 22.0481 86.8082 19.6993C86.9072 17.1139 84.8408 14.9872 82.2776 14.9872H74.2515C75.8218 12.2128 78.7897 10.3346 82.1994 10.3055C87.2272 10.2632 91.4038 14.325 91.4922 19.353Z" fill="#2D2F34"/>
<path id="Vector_5" d="M112.434 19.353C112.526 24.5872 108.253 28.8446 103.015 28.7322C97.9505 28.6225 93.8922 24.3744 94.0045 19.3107C94.0136 18.8957 94.0507 18.4885 94.1126 18.088C94.1126 18.0854 94.1142 18.0828 94.1142 18.0801C94.1223 18.0325 94.1289 17.9849 94.138 17.9374C94.1391 17.936 94.138 17.936 94.138 17.936C94.1391 17.9294 94.1406 17.9228 94.1406 17.9176C94.3229 16.8667 95.2497 16.1081 96.3167 16.1081H100.231C99.2821 16.9381 98.6834 18.1581 98.6834 19.5195C98.6834 22.0811 100.808 24.1457 103.392 24.0493C105.743 23.962 107.659 22.0481 107.75 19.6993C107.849 17.1139 105.783 14.9872 103.219 14.9872H95.1929C96.7637 12.2128 99.7316 10.3346 103.141 10.3055C108.17 10.2632 112.345 14.325 112.434 19.353Z" fill="#2D2F34"/>
<path id="Vector_6" d="M141.505 19.3528C141.598 24.5869 137.325 28.8444 132.087 28.732C127.023 28.6223 122.964 24.3741 123.076 19.3105C123.085 18.8954 123.122 18.4883 123.185 18.0878C123.185 18.0852 123.186 18.0825 123.186 18.0799C123.194 18.0323 123.2 17.9847 123.21 17.9371C123.211 17.9358 123.21 17.9358 123.21 17.9358C123.211 17.9292 123.212 17.9226 123.212 17.9173C123.394 16.8665 124.321 16.1078 125.388 16.1078H129.303C128.354 16.9379 127.755 18.1579 127.755 19.5193C127.755 22.0809 129.879 24.1455 132.464 24.049C134.815 23.9618 136.73 22.0479 136.821 19.6991C136.921 17.1137 134.854 14.9869 132.291 14.9869H124.264C125.835 12.2126 128.803 10.3343 132.213 10.3053C137.241 10.263 141.417 14.3247 141.505 19.3528Z" fill="#2D2F34"/>
<path id="Vector_7" d="M120.566 3.39893V26.5193C120.566 27.7419 119.574 28.7332 118.351 28.7332H114.944V5.61289C114.944 4.39025 115.936 3.39893 117.159 3.39893H120.566Z" fill="#2D2F34"/>
<path id="Vector_8" d="M41.8325 15.8647L36.2112 21.2628V3.26562H39.2294C40.6664 3.26562 41.8325 4.4301 41.8325 5.86818V15.8647Z" fill="#2D2F34"/>
<path id="Vector_9" d="M70.5513 10.304V13.0638C70.5513 13.0638 70.1628 14.1926 68.5224 15.2579C68.5224 15.2579 65.5738 15.5448 64.7516 18.15V26.5194C64.7516 27.7421 63.7603 28.7333 62.5373 28.7333H59.1301V12.5179C59.1301 11.2953 60.122 10.304 61.3449 10.304H64.7516V12.0354C65.3493 11.442 66.6713 10.304 68.0501 10.304C69.917 10.304 70.5513 10.304 70.5513 10.304Z" fill="#2D2F34"/>
<path id="Vector_10" d="M56.621 28.7333H51.8243C51.0102 28.7333 50.2406 28.3606 49.7355 27.7209L44.7289 21.3711L41.8311 24.127V26.1308C41.8311 27.5689 40.665 28.7333 39.228 28.7333H36.2097V22.9387L41.7583 17.6014L41.8311 17.5314L45.2367 14.2944L48.6634 11.0362C49.1578 10.5657 49.8136 10.304 50.4957 10.304H56.367L48.2073 18.0627L56.621 28.7333Z" fill="#2D2F34"/>
<path id="Vector_11" d="M122.576 1.52357C122.576 0.682127 123.258 0 124.099 0H141.509V5.23092C141.509 6.07238 140.826 6.75448 139.985 6.75448H122.576V1.52357Z" fill="url(#paint0_linear_5_97919)"/>
<path id="Vector_12" d="M126.044 5.03801V1.71387H127.375C127.619 1.71387 127.823 1.75011 127.987 1.82261C128.15 1.89511 128.273 1.99575 128.355 2.12451C128.437 2.2522 128.479 2.39936 128.479 2.566C128.479 2.69585 128.453 2.81001 128.401 2.90848C128.349 3.00587 128.277 3.08594 128.187 3.1487C128.097 3.21038 127.994 3.2542 127.878 3.28018V3.31264C128.005 3.31805 128.123 3.35375 128.233 3.41977C128.345 3.48577 128.435 3.57829 128.505 3.69732C128.574 3.81526 128.609 3.95593 128.609 4.11933C128.609 4.2957 128.564 4.45315 128.477 4.59165C128.39 4.72908 128.262 4.83783 128.092 4.9179C127.922 4.99797 127.713 5.03801 127.464 5.03801H126.044ZM126.747 4.46343H127.32C127.516 4.46343 127.658 4.4261 127.748 4.35143C127.838 4.27569 127.883 4.17505 127.883 4.04953C127.883 3.95755 127.861 3.8764 127.816 3.80607C127.772 3.73573 127.709 3.68054 127.626 3.6405C127.545 3.60047 127.449 3.58045 127.336 3.58045H126.747V4.46343ZM126.747 3.10488H127.268C127.364 3.10488 127.45 3.0881 127.524 3.05456C127.6 3.01994 127.659 2.97124 127.703 2.90848C127.747 2.84572 127.769 2.77052 127.769 2.68287C127.769 2.56276 127.726 2.46591 127.641 2.39233C127.557 2.31875 127.436 2.28195 127.281 2.28195H126.747V3.10488ZM129.294 5.03801V1.71387H131.534V2.29332H129.997V3.0854H131.419V3.66485H129.997V4.45856H131.54V5.03801H129.294ZM132.195 2.29332V1.71387H134.925V2.29332H133.907V5.03801H133.212V2.29332H132.195ZM135.77 5.03801H135.017L136.164 1.71387H137.07L138.216 5.03801H137.463L136.63 2.47348H136.604L135.77 5.03801ZM135.723 3.7314H137.502V4.28002H135.723V3.7314Z" fill="white"/>
</g>
</g>
</g>
</g>
<defs>
<linearGradient id="paint0_linear_5_97919" x1="122.721" y1="0.713924" x2="128.722" y2="0.713924" gradientUnits="userSpaceOnUse">
<stop stop-color="#7F56D9"/>
<stop offset="1" stop-color="#FF3465"/>
</linearGradient>
<clipPath id="clip0_5_97919">
<rect width="141.509" height="32" fill="white"/>
</clipPath>
</defs>
</svg>
